# xmcd
#
# Track frame offsets: 
#        150
#        18344
#        35250
#        55552
#        86516
#        104058
#        121873
#        148761
#        165555
#        192361
#
# Disc length: 2717 seconds
#
# Revision: 1
# Processed by: cddbd v1.5.2PL0 Copyright (c) Steve Scherf et al.
# Submitted via: ExactAudioCopy v1.0b3
#
DISCID=7d0a9b0a
DTITLE=Ty Curtis - Stubborn Mind
DYEAR=2007
DGENRE=Blues
TTITLE0=Come On
TTITLE1=What Do I Know About Love
TTITLE2=I Lit A Fire
TTITLE3=What Kind Of Fool
TTITLE4=When I'm Around You
TTITLE5=No Regrets
TTITLE6=Stubborn Mind
TTITLE7=No She Don't
TTITLE8=Led Me On
TTITLE9=I'm Gonna Miss You
EXTD=YEAR: 2007
EXTT0=
EXTT1=
EXTT2=
EXTT3=
EXTT4=
EXTT5=
EXTT6=
EXTT7=
EXTT8=
EXTT9=
PLAYORDER=
